<?xml version="1.0" encoding="UTF-8" standalone="no"?> <svg width="64" height="64" viewBox="0 0 64 64" fill="none" xmlns="http://www.w3.org/2000/svg">
<path d="M60.5501 24.09L53.0801 11.16C52.9663 10.9746 52.8078 10.8206 52.6191 10.7123C52.4304 10.604 52.2176 10.5448 52.0001 10.54H12.0001C11.7823 10.5438 11.5691 10.6027 11.3803 10.7111C11.1914 10.8195 11.0331 10.9739 10.9201 11.16L3.45006 24.09C3.07831 24.7359 2.88294 25.4683 2.88355 26.2135C2.88415 26.9587 3.08071 27.6907 3.45351 28.336C3.8263 28.9813 4.36223 29.5173 5.00753 29.8901C5.65283 30.2629 6.38481 30.4594 7.13006 30.46H16.8701C17.6153 30.4594 18.3473 30.2629 18.9926 29.8901C19.6379 29.5173 20.1738 28.9813 20.5466 28.336C20.9194 27.6907 21.116 26.9587 21.1166 26.2135C21.1172 25.4683 20.9218 24.7359 20.5501 24.09L14.1701 13H30.6901V45H29.7501C27.1282 44.9937 24.537 45.5647 22.1606 46.6726C19.7843 47.7804 17.6809 49.3978 16.0001 51.41C15.8457 51.5951 15.7481 51.8209 15.7191 52.0602C15.6901 52.2995 15.7309 52.5421 15.8365 52.7587C15.9422 52.9753 16.1083 53.1568 16.3147 53.2812C16.5211 53.4057 16.7591 53.4678 17.0001 53.46H47.0001C47.2371 53.4585 47.4688 53.3901 47.6687 53.2627C47.8686 53.1353 48.0285 52.9542 48.1301 52.74C48.2322 52.5254 48.2705 52.2859 48.2403 52.0501C48.2102 51.8143 48.1129 51.5921 47.9601 51.41C46.2692 49.389 44.1527 47.7664 41.7619 46.6584C39.3711 45.5503 36.7651 44.984 34.1301 45H33.1901V13H49.8301L43.4501 24.09C43.0783 24.7359 42.8829 25.4683 42.8835 26.2135C42.8842 26.9587 43.0807 27.6907 43.4535 28.336C43.8263 28.9813 44.3622 29.5173 45.0075 29.8901C45.6528 30.2629 46.3848 30.4594 47.1301 30.46H56.8701C57.6153 30.4594 58.3473 30.2629 58.9926 29.8901C59.6379 29.5173 60.1738 28.9813 60.5466 28.336C60.9194 27.6907 61.116 26.9587 61.1166 26.2135C61.1172 25.4683 60.9218 24.7359 60.5501 24.09V24.09Z" fill="black"/>
</svg>
